# xmcd CD database file
#
# Track frame offsets:
#	150
#	21065
#	33767
#	48542
#	62235
#	80465
#	93395
#	107122
#	125472
#	139310
#	150540
#	160912
#	172857
#	188327
#
# Disc length: 2872 seconds
#
# Revision: 1
# Processed by: cddbd v1.5.1PL0 Copyright (c) Steve Scherf et al.
# Submitted via: CDex 1.51
#
DISCID=aa0b360e
DTITLE=ACAMA - Weihnachten mit ACAMA
DYEAR=1900
DGENRE=New Age
TTITLE0=Stille Nacht
TTITLE1=O Tannenbaum
TTITLE2=Fröhliche Weihnacht
TTITLE3=Heidschi Bumbeidschi
TTITLE4=Weihnachtsliebe
TTITLE5=Ihr Kinderlein kommet
TTITLE6=Still, still ...
TTITLE7=O du fröhliche
TTITLE8=Jingle bells
TTITLE9=Leise rieselt der Schnee
TTITLE10=Kling Glöckchen kling
TTITLE11=Lichterglanz im Schnee
TTITLE12=Es wird scho glei dumpa
TTITLE13=Stille nacht
EXTD=
EXTT0=
EXTT1=
EXTT2=
EXTT3=
EXTT4=
EXTT5=
EXTT6=
EXTT7=
EXTT8=
EXTT9=
EXTT10=
EXTT11=
EXTT12=
EXTT13=
PLAYORDER=
